<svg xmlns="http://www.w3.org/2000/svg" xmlns:xlink="http://www.w3.org/1999/xlink" contentStyleType="text/css" data-diagram-type="CLASS" height="422px" preserveAspectRatio="none" style="width:688px;height:422px;background:#FFFFFF;" version="1.1" viewBox="0 0 688 422" width="688px" zoomAndPan="magnify"><defs/><g><!--cluster STM32 Application--><g class="cluster" data-entity="STM32 Application" data-source-line="1" data-uid="ent0002" id="cluster_STM32 Application"><path d="M8.5,6 L144.9609,6 A3.75,3.75 0 0 1 147.4609,8.5 L154.4609,28.4883 L257.5,28.4883 A2.5,2.5 0 0 1 260,30.9883 L260,413.38 A2.5,2.5 0 0 1 257.5,415.88 L8.5,415.88 A2.5,2.5 0 0 1 6,413.38 L6,8.5 A2.5,2.5 0 0 1 8.5,6" fill="none" style="stroke:#000000;stroke-width:1.5;"/><line style="stroke:#000000;stroke-width:1.5;" x1="6" x2="154.4609" y1="28.4883" y2="28.4883"/><text fill="#000000" font-family="sans-serif" font-size="14" font-weight="bold" lengthAdjust="spacing" textLength="135.4609" x="10" y="21.5352">STM32 Application</text></g><!--cluster Verilog Module--><g class="cluster" data-entity="Verilog Module" data-source-line="19" data-uid="ent0005" id="cluster_Verilog Module"><path d="M286.5,250.93 L396.6221,250.93 A3.75,3.75 0 0 1 399.1221,253.43 L406.1221,273.4183 L491.5,273.4183 A2.5,2.5 0 0 1 494,275.9183 L494,413.38 A2.5,2.5 0 0 1 491.5,415.88 L286.5,415.88 A2.5,2.5 0 0 1 284,413.38 L284,253.43 A2.5,2.5 0 0 1 286.5,250.93" fill="none" style="stroke:#000000;stroke-width:1.5;"/><line style="stroke:#000000;stroke-width:1.5;" x1="284" x2="406.1221" y1="273.4183" y2="273.4183"/><text fill="#000000" font-family="sans-serif" font-size="14" font-weight="bold" lengthAdjust="spacing" textLength="109.1221" x="288" y="266.4652">Verilog Module</text></g><!--class Main--><g class="entity" data-entity="Main" data-source-line="2" data-uid="ent0003" id="entity_Main"><rect fill="#F1F1F1" height="146.9297" rx="2.5" ry="2.5" style="stroke:#181818;stroke-width:0.5;" width="222.5195" x="21.74" y="41"/><ellipse cx="112.4871" cy="57" fill="#ADD1B2" rx="11" ry="11" style="stroke:#181818;stroke-width:1;"/><path d="M114.9602,63.1431 Q114.3792,63.4419 113.74,63.5913 Q113.1008,63.7407 112.3953,63.7407 Q109.8884,63.7407 108.5686,62.0889 Q107.2488,60.437 107.2488,57.3159 Q107.2488,54.1865 108.5686,52.5347 Q109.8884,50.8828 112.3953,50.8828 Q113.1008,50.8828 113.7483,51.0322 Q114.3958,51.1816 114.9602,51.4805 L114.9602,54.2031 Q114.3294,53.6221 113.7358,53.3523 Q113.1423,53.0825 112.5115,53.0825 Q111.1668,53.0825 110.4819,54.1492 Q109.7971,55.2158 109.7971,57.3159 Q109.7971,59.4077 110.4819,60.4744 Q111.1668,61.541 112.5115,61.541 Q113.1423,61.541 113.7358,61.2712 Q114.3294,61.0015 114.9602,60.4204 Z " fill="#000000"/><text fill="#000000" font-family="sans-serif" font-size="14" lengthAdjust="spacing" textLength="32.5254" x="132.9871" y="62.291">Main</text><line style="stroke:#181818;stroke-width:0.5;" x1="22.74" x2="243.2595" y1="73" y2="73"/><line style="stroke:#181818;stroke-width:0.5;" x1="22.74" x2="243.2595" y1="81" y2="81"/><ellipse cx="32.74" cy="94.7441" fill="#84BE84" rx="3" ry="3" style="stroke:#038048;stroke-width:1;"/><text fill="#000000" font-family="sans-serif" font-size="14" lengthAdjust="spacing" textLength="42.6426" x="41.74" y="98.5352">main()</text><ellipse cx="32.74" cy="111.2324" fill="#84BE84" rx="3" ry="3" style="stroke:#038048;stroke-width:1;"/><text fill="#000000" font-family="sans-serif" font-size="14" lengthAdjust="spacing" textLength="146.7881" x="41.74" y="115.0234">SystemClock_Config()</text><ellipse cx="32.74" cy="127.7207" fill="#84BE84" rx="3" ry="3" style="stroke:#038048;stroke-width:1;"/><text fill="#000000" font-family="sans-serif" font-size="14" lengthAdjust="spacing" textLength="98.6973" x="41.74" y="131.5117">MX_GPIO_Init()</text><ellipse cx="32.74" cy="144.209" fill="#84BE84" rx="3" ry="3" style="stroke:#038048;stroke-width:1;"/><text fill="#000000" font-family="sans-serif" font-size="14" lengthAdjust="spacing" textLength="163.4541" x="41.74" y="148">MX_USART2_UART_Init()</text><ellipse cx="32.74" cy="160.6973" fill="#84BE84" rx="3" ry="3" style="stroke:#038048;stroke-width:1;"/><text fill="#000000" font-family="sans-serif" font-size="14" lengthAdjust="spacing" textLength="125.8291" x="41.74" y="164.4883">Test_LED_Pattern()</text><ellipse cx="32.74" cy="177.1855" fill="#84BE84" rx="3" ry="3" style="stroke:#038048;stroke-width:1;"/><text fill="#000000" font-family="sans-serif" font-size="14" lengthAdjust="spacing" textLength="196.5195" x="41.74" y="180.9766">Test_UART_Communication()</text></g><!--class HAL--><g class="entity" data-entity="HAL" data-source-line="11" data-uid="ent0004" id="entity_HAL"><rect fill="#F1F1F1" height="113.9531" rx="2.5" ry="2.5" style="stroke:#181818;stroke-width:0.5;" width="176.5137" x="44.74" y="285.93"/><ellipse cx="115.0408" cy="301.93" fill="#ADD1B2" rx="11" ry="11" style="stroke:#181818;stroke-width:1;"/><path d="M117.5139,308.0731 Q116.9329,308.3719 116.2937,308.5213 Q115.6546,308.6707 114.949,308.6707 Q112.4421,308.6707 111.1223,307.0189 Q109.8025,305.367 109.8025,302.2459 Q109.8025,299.1165 111.1223,297.4647 Q112.4421,295.8128 114.949,295.8128 Q115.6546,295.8128 116.302,295.9622 Q116.9495,296.1116 117.5139,296.4105 L117.5139,299.1331 Q116.8831,298.5521 116.2896,298.2823 Q115.6961,298.0125 115.0652,298.0125 Q113.7205,298.0125 113.0357,299.0792 Q112.3508,300.1458 112.3508,302.2459 Q112.3508,304.3377 113.0357,305.4044 Q113.7205,306.471 115.0652,306.471 Q115.6961,306.471 116.2896,306.2012 Q116.8831,305.9315 117.5139,305.3504 Z " fill="#000000"/><text fill="#000000" font-family="sans-serif" font-size="14" lengthAdjust="spacing" textLength="27.4121" x="135.5408" y="307.221">HAL</text><line style="stroke:#181818;stroke-width:0.5;" x1="45.74" x2="220.2537" y1="317.93" y2="317.93"/><line style="stroke:#181818;stroke-width:0.5;" x1="45.74" x2="220.2537" y1="325.93" y2="325.93"/><ellipse cx="55.74" cy="339.6741" fill="#84BE84" rx="3" ry="3" style="stroke:#038048;stroke-width:1;"/><text fill="#000000" font-family="sans-serif" font-size="14" lengthAdjust="spacing" textLength="65.5225" x="64.74" y="343.4652">HAL_Init()</text><ellipse cx="55.74" cy="356.1624" fill="#84BE84" rx="3" ry="3" style="stroke:#038048;stroke-width:1;"/><text fill="#000000" font-family="sans-serif" font-size="14" lengthAdjust="spacing" textLength="148.0732" x="64.74" y="359.9534">HAL_UART_Transmit()</text><ellipse cx="55.74" cy="372.6507" fill="#84BE84" rx="3" ry="3" style="stroke:#038048;stroke-width:1;"/><text fill="#000000" font-family="sans-serif" font-size="14" lengthAdjust="spacing" textLength="150.5137" x="64.74" y="376.4417">HAL_GPIO_TogglePin()</text><ellipse cx="55.74" cy="389.139" fill="#84BE84" rx="3" ry="3" style="stroke:#038048;stroke-width:1;"/><text fill="#000000" font-family="sans-serif" font-size="14" lengthAdjust="spacing" textLength="80.8965" x="64.74" y="392.93">HAL_Delay()</text></g><!--class Counter--><g class="entity" data-entity="Counter" data-source-line="20" data-uid="ent0006" id="entity_Counter"><rect fill="#F1F1F1" height="113.9531" rx="2.5" ry="2.5" style="stroke:#181818;stroke-width:0.5;" width="177.8193" x="300.09" y="285.93"/><ellipse cx="357.5358" cy="301.93" fill="#ADD1B2" rx="11" ry="11" style="stroke:#181818;stroke-width:1;"/><path d="M360.0089,308.0731 Q359.4279,308.3719 358.7887,308.5213 Q358.1496,308.6707 357.444,308.6707 Q354.9372,308.6707 353.6173,307.0189 Q352.2975,305.367 352.2975,302.2459 Q352.2975,299.1165 353.6173,297.4647 Q354.9372,295.8128 357.444,295.8128 Q358.1496,295.8128 358.797,295.9622 Q359.4445,296.1116 360.0089,296.4105 L360.0089,299.1331 Q359.3781,298.5521 358.7846,298.2823 Q358.1911,298.0125 357.5602,298.0125 Q356.2155,298.0125 355.5307,299.0792 Q354.8459,300.1458 354.8459,302.2459 Q354.8459,304.3377 355.5307,305.4044 Q356.2155,306.471 357.5602,306.471 Q358.1911,306.471 358.7846,306.2012 Q359.3781,305.9315 360.0089,305.3504 Z " fill="#000000"/><text fill="#000000" font-family="sans-serif" font-size="14" lengthAdjust="spacing" textLength="54.4277" x="378.0358" y="307.221">Counter</text><line style="stroke:#181818;stroke-width:0.5;" x1="301.09" x2="476.9093" y1="317.93" y2="317.93"/><ellipse cx="311.09" cy="331.6741" fill="none" rx="3" ry="3" style="stroke:#038048;stroke-width:1;"/><text fill="#000000" font-family="sans-serif" font-size="14" lengthAdjust="spacing" textLength="59.3018" x="320.09" y="335.4652">input clk</text><ellipse cx="311.09" cy="348.1624" fill="none" rx="3" ry="3" style="stroke:#038048;stroke-width:1;"/><text fill="#000000" font-family="sans-serif" font-size="14" lengthAdjust="spacing" textLength="58.0029" x="320.09" y="351.9534">input rst</text><ellipse cx="311.09" cy="364.6507" fill="none" rx="3" ry="3" style="stroke:#038048;stroke-width:1;"/><text fill="#000000" font-family="sans-serif" font-size="14" lengthAdjust="spacing" textLength="123.7441" x="320.09" y="368.4417">output [7:0] count</text><line style="stroke:#181818;stroke-width:0.5;" x1="301.09" x2="476.9093" y1="375.3948" y2="375.3948"/><ellipse cx="311.09" cy="389.139" fill="#84BE84" rx="3" ry="3" style="stroke:#038048;stroke-width:1;"/><text fill="#000000" font-family="sans-serif" font-size="14" lengthAdjust="spacing" textLength="151.8193" x="320.09" y="392.93">always @(posedge clk)</text></g><g class="entity" data-entity="GMN9" data-source-line="32" data-uid="ent0010" id="entity_GMN9"><path d="M279.01,94.15 L279.01,110.46 L244.55,114.46 L279.01,118.46 L279.01,134.7711 A0,0 0 0 0 279.01,134.7711 L458.9871,134.7711 A0,0 0 0 0 458.9871,134.7711 L458.9871,104.15 L448.9871,94.15 L279.01,94.15 A0,0 0 0 0 279.01,94.15" fill="#FEFFDD" style="stroke:#181818;stroke-width:0.5;"/><path d="M448.9871,94.15 L448.9871,104.15 L458.9871,104.15 L448.9871,94.15" fill="#FEFFDD" style="stroke:#181818;stroke-width:0.5;"/><text fill="#000000" font-family="sans-serif" font-size="13" lengthAdjust="spacing" textLength="158.9771" x="285.01" y="111.7184">STM32F4 microcontroller</text><text fill="#000000" font-family="sans-serif" font-size="13" lengthAdjust="spacing" textLength="69.5703" x="285.01" y="127.0289">application</text></g><g class="entity" data-entity="GMN12" data-source-line="37" data-uid="ent0013" id="entity_GMN12"><path d="M512.49,322.59 L512.49,338.9 L478.38,342.9 L512.49,346.9 L512.49,363.2111 A0,0 0 0 0 512.49,363.2111 L681.511,363.2111 A0,0 0 0 0 681.511,363.2111 L681.511,332.59 L671.511,322.59 L512.49,322.59 A0,0 0 0 0 512.49,322.59" fill="#FEFFDD" style="stroke:#181818;stroke-width:0.5;"/><path d="M671.511,322.59 L671.511,332.59 L681.511,332.59 L671.511,322.59" fill="#FEFFDD" style="stroke:#181818;stroke-width:0.5;"/><text fill="#000000" font-family="sans-serif" font-size="13" lengthAdjust="spacing" textLength="148.021" x="518.49" y="340.1584">Verilog implementation</text><text fill="#000000" font-family="sans-serif" font-size="13" lengthAdjust="spacing" textLength="101.7402" x="518.49" y="355.4689">of 8-bit counter</text></g><!--link Main to HAL--><g class="link" data-entity-1="Main" data-entity-2="HAL" data-source-line="28" data-uid="lnk7" id="link_Main_HAL"><path codeLine="28" d="M133,188.36 C133,219.9 133,250.25 133,279.67" fill="none" id="Main-to-HAL" style="stroke:#181818;stroke-width:1;"/><polygon fill="#181818" points="133,285.67,137,276.67,133,280.67,129,276.67,133,285.67" style="stroke:#181818;stroke-width:1;"/><text fill="#000000" font-family="sans-serif" font-size="13" lengthAdjust="spacing" textLength="28.5645" x="134" y="231.4984">uses</text></g><!--link Main to Counter--><g class="link" data-entity-1="Main" data-entity-2="Counter" data-source-line="29" data-uid="lnk8" id="link_Main_Counter"><path codeLine="29" d="M215.41,188.36 C251.07,219.9 287.6765,252.2741 320.9265,281.6941" fill="none" id="Main-to-Counter" style="stroke:#181818;stroke-width:1;stroke-dasharray:7.0,7.0;"/><polygon fill="#181818" points="325.42,285.67,321.3303,276.7104,321.6754,282.3567,316.0291,282.7018,325.42,285.67" style="stroke:#181818;stroke-width:1;"/><text fill="#000000" font-family="sans-serif" font-size="13" lengthAdjust="spacing" textLength="85.395" x="262" y="231.4984">interacts with</text></g><!--SRC=[PL9TQy8m57tlhxZioJ6KuGORFiYaxaEmJ6OTWp5A5cCDvgCajuWC__kIM6srUKYvvznxxhctAGZTa9p1rJnDxlemAWh1AK6krHNyHU0E5SHQI0XN5U3FZNHnvxgEvpkBJCP2qqqMQxNYUPDDlhBNsUGzcoYE5_XYFlf8-zd2tIqwPHQpwVCucn54PbIB2rMnbh9KbUigPH_kXl-tqRHftuMjRXuBWgaXoies6KP8TPuBDZkVthDZ9iZkr7uVHSLnjP_CSA5pIFIo5Enyhx4kbHkjwOsheaH7RouXOx66T8aU-tuOtFu0zIerHyIMx2myTGfjsT9PS68DO-5VThl3i9G1b9RP0zRh3K-61i3zbr2qiEMuZYAbaO7X-Hf1hyA3S9BXsRpSW-JKQAeL6Yq4CuuXzLEAc5g2BxyKgPgvxEEEk2m4aqpXeH1yrcFtb-DXHfTxrFe7]--></g></svg>